<?xml version="1.0" encoding="UTF-8"?>
<svg id="Layer_1" data-name="Layer 1" xmlns="http://www.w3.org/2000/svg" viewBox="0 0 2000 407.92">
  <polygon points="181.95 55.35 80.14 350.2 134.01 350.2 157.77 280.2 157.85 280.2 215.03 112.21 257.46 235.66 257.29 235.66 272.53 280.2 272.73 280.2 296.49 350.2 349.94 350.2 247.71 55.35 181.95 55.35"/>
  <path d="M511.99,261.95c0,24.6-19.51,44.98-49.63,45.4-30.11,0-49.21-19.94-49.21-48.78V126.63h-53.87v138.72c0,51.75,30.54,89.94,87.39,89.94,28.83,0,53.02-12.3,68.72-29.71v24.62h50.49V126.63h-53.89v135.32Z"/>
  <path d="M642.02,263.23v-90.36h60.24v-46.24h-58.56V52.56h-52.59v244.32c8.87,33.11,35.03,53.33,77.63,53.33h35.2v-47.1h-24.6c-24.18,0-37.33-14-37.33-39.87Z"/>
  <path d="M827.41,121.54c-70,0-119.21,50.05-119.21,117.08,0,19,4.01,36.65,11.36,52.17,9.29,19.67,23.96,35.94,42.67,47.19,18.3,11.04,40.43,17.3,65.18,17.3s46.54-6.21,64.79-17.17c18.8-11.27,33.6-27.57,42.99-47.32,7.38-15.52,11.43-33.17,11.43-52.17,0-67.03-49.63-117.08-119.21-117.08ZM762.08,238.62c0-40.31,26.73-68.74,65.75-68.74s64.49,28.43,64.49,68.31c0,1.73-.05,3.43-.14,5.12-18.25-10.97-40.28-17.17-64.77-17.17s-46.9,6.26-65.19,17.31c-.09-1.59-.14-3.2-.14-4.84ZM827.83,307.35c-17.91,0-33.22-6.07-44.55-16.49,11.33-10.38,26.65-16.36,44.55-16.36s32.66,5.95,43.73,16.24c-11.13,10.52-26.18,16.61-43.73,16.61Z"/>
  <polygon points="1215.15 55.35 1215.15 55.79 1202.83 55.35 1127.32 275.11 1051.81 55.35 1039.51 55.79 1039.51 55.35 989.04 55.35 967.82 350.2 1018.31 350.2 1034 132.56 1104.84 339.58 1149.82 339.58 1220.66 132.14 1235.93 350.2 1286.42 350.2 1265.2 55.35 1215.15 55.35"/>
  <path d="M1442.95,55.35h-116.66v294.85h54.31v-113.7h62.35c61.51,0,100.97-35.64,100.97-90.78s-39.03-90.37-100.97-90.37ZM1440.4,188.98h-59.81v-86.11h59.81c31.82,0,48.36,17.81,48.36,42.85s-16.55,43.26-48.36,43.26Z"/>
  <polygon points="1865.9 55.35 1818.4 286.99 1761.96 55.35 1703.42 55.35 1647 285.29 1599.06 55.35 1545.62 55.35 1614.34 350.2 1677.55 350.2 1732.69 130.02 1787.42 350.2 1851.05 350.2 1919.35 55.35 1865.9 55.35"/>
</svg>